<!-- (c) Carrd Inc. All rights reserved. All logos and trademarks are property of their respective owners. -->
<svg xmlns="http://www.w3.org/2000/svg" id="icon">
<path d="M33.5,31.1c-0.2,0-0.4,0.1-0.6,0.1v0.1c0,2,0,3.9,0,5.8c0,0.3,0,0.5,0,0.8c-0.1,0.7-0.5,1.2-1.2,1.5 c-0.1,0.1-0.3,0.1-0.4,0.1c-0.2,0-0.3,0-0.5,0c-0.9-0.2-1.5-0.7-2-1.4c-1.8-2.3-3.5-4.6-5.3-6.7c-0.1-0.1-0.2-0.1-0.3-0.1 c-2.4,0-4.9,0-7.3,0c-2.7,0-5.5,0-8.2,0c-2,0-3.6-1.3-4-3.2c0-0.2-0.1-0.3-0.1-0.5c0-5.8,0-11.7,0-17.5V10c0.2-1.5,1.1-2.6,2.5-3.2 c0.3-0.1,0.7-0.2,1.1-0.3c8.6,0,17.2,0,25.8,0H33c1.6,0.2,3,1.4,3.4,3c0.1,0.2,0.1,0.4,0.1,0.6c0,5.8,0,11.7,0,17.5c0,0,0,0,0,0.1 C36.3,29.4,35.1,30.7,33.5,31.1z M19.1,12.8c-0.5-0.4-0.9-0.5-1.5-0.5c-0.4,0.1-0.6,0.3-0.7,0.6c-0.8,2.7-1.5,5.5-2.3,8.1 c-0.1,0.6-0.3,1.1-0.4,1.6c0-0.1,0-0.1,0-0.2c-0.9-3.2-1.8-6.4-2.7-9.6c-0.1-0.3-0.3-0.5-0.6-0.5c-0.5-0.1-0.9,0-1.3,0.3 c-0.3,0.3-0.4,0.6-0.3,1c1.2,3.7,2.3,7.4,3.5,11.2c0.2,0.3,0.4,0.6,0.7,0.7c0.6,0.3,1.3,0.3,1.9,0c0.3-0.2,0.5-0.4,0.6-0.7 c1.2-3.8,2.3-7.6,3.3-11.3C19.4,13.2,19.3,13,19.1,12.8z M27.7,19.5c1-0.3,1.7-1,2-2c0.3-1,0.3-2,0-3c-0.3-0.9-0.9-1.6-1.8-2 c-0.6-0.2-1.2-0.4-1.8-0.4c-1.4,0-2.8,0-4.2,0c-0.5,0-0.9,0.3-0.9,0.9c0,3.9,0,7.7,0,11.6c0,0.3,0.2,0.5,0.4,0.6 c0.4,0.2,0.9,0.2,1.4,0c0.3-0.1,0.5-0.3,0.5-0.7c0-1.4,0-2.9,0-4.4c0,0,0-0.1,0-0.2c0.6,0,1,0,1.5,0c0.1,0,0.2,0,0.2,0.1 c0.2,0.4,0.4,0.8,0.6,1.2c0.6,1.2,1.3,2.5,1.9,3.7c0.2,0.3,0.4,0.6,0.8,0.6c0.6,0.1,1.4-0.5,1.6-1c0.1-0.2,0.1-0.3,0-0.5 c-0.7-1.4-1.5-2.9-2.3-4.3c0-0.1-0.1-0.1-0.1-0.2C27.6,19.5,27.6,19.5,27.7,19.5z M26,18.1c-0.8,0-1.6,0-2.4,0c-0.1,0-0.1,0-0.1,0 c0-1.3,0-2.6,0-3.9c0.8,0,1.7-0.1,2.5,0c0.8,0.1,1.3,0.7,1.4,1.5c0,0.3,0,0.7,0.1,1.1C27.3,17.6,26.8,18.1,26,18.1z"/>
</svg>